<svg xmlns="http://www.w3.org/2000/svg" width="242.53" height="35" viewBox="0 0 242.53 35"><rect class="svg__rect" x="0" y="0" width="115.31" height="35" fill="#000000"/><rect class="svg__rect" x="113.31" y="0" width="129.22" height="35" fill="#D62121"/><path class="svg__text" d="M15.69 22L14.22 22L14.22 13.47L16.14 13.47L18.60 20.01L21.06 13.47L22.97 13.47L22.97 22L21.49 22L21.49 19.19L21.64 15.43L19.12 22L18.06 22L15.55 15.43L15.69 19.19L15.69 22ZM28.49 22L26.95 22L30.17 13.47L31.50 13.47L34.73 22L33.18 22L32.49 20.01L29.18 20.01L28.49 22ZM30.83 15.28L29.60 18.82L32.07 18.82L30.83 15.28ZM41.14 22L38.69 22L38.69 13.47L41.21 13.47Q42.34 13.47 43.21 13.97Q44.09 14.48 44.57 15.40Q45.05 16.33 45.05 17.52L45.05 17.52L45.05 17.95Q45.05 19.16 44.57 20.08Q44.08 21.00 43.19 21.50Q42.30 22 41.14 22L41.14 22ZM40.17 14.66L40.17 20.82L41.14 20.82Q42.30 20.82 42.93 20.09Q43.55 19.36 43.56 17.99L43.56 17.99L43.56 17.52Q43.56 16.13 42.96 15.40Q42.35 14.66 41.21 14.66L41.21 14.66L40.17 14.66ZM55.09 22L49.51 22L49.51 13.47L55.05 13.47L55.05 14.66L51.00 14.66L51.00 17.02L54.50 17.02L54.50 18.19L51.00 18.19L51.00 20.82L55.09 20.82L55.09 22ZM66.65 22L64.68 13.47L66.15 13.47L67.47 19.88L69.10 13.47L70.34 13.47L71.96 19.89L73.27 13.47L74.74 13.47L72.77 22L71.35 22L69.73 15.77L68.07 22L66.65 22ZM80.38 22L78.90 22L78.90 13.47L80.38 13.47L80.38 22ZM86.87 14.66L84.23 14.66L84.23 13.47L91.00 13.47L91.00 14.66L88.34 14.66L88.34 22L86.87 22L86.87 14.66ZM96.24 22L94.75 22L94.75 13.47L96.24 13.47L96.24 17.02L100.05 17.02L100.05 13.47L101.53 13.47L101.53 22L100.05 22L100.05 18.21L96.24 18.21L96.24 22Z" fill="#FFFFFF"/><path class="svg__text" d="M129.85 22L127.50 22L127.50 13.60L129.85 13.60L129.85 17.09L133.11 13.60L135.72 13.60L132.29 17.32L135.90 22L133.14 22L130.74 18.95L129.85 19.90L129.85 22ZM141.43 22L139.00 22L142.71 13.60L145.05 13.60L148.77 22L146.30 22L145.64 20.37L142.09 20.37L141.43 22ZM143.86 15.93L142.78 18.61L144.94 18.61L143.86 15.93ZM159.31 22L152.92 22L152.92 13.60L155.30 13.60L155.30 20.11L159.31 20.11L159.31 22ZM166.11 22L163.73 22L163.73 13.60L166.11 13.60L166.11 22ZM184.64 22L178.25 22L178.25 13.60L180.63 13.60L180.63 20.11L184.64 20.11L184.64 22ZM191.44 22L189.06 22L189.06 13.60L191.44 13.60L191.44 22ZM198.94 22L196.61 22L196.61 13.60L198.57 13.60L202.28 18.07L202.28 13.60L204.60 13.60L204.60 22L202.65 22L198.94 17.52L198.94 22ZM209.69 18.26L209.69 18.26L209.69 13.60L212.07 13.60L212.07 18.19Q212.07 20.20 213.67 20.20L213.67 20.20Q215.25 20.20 215.25 18.19L215.25 18.19L215.25 13.60L217.59 13.60L217.59 18.26Q217.59 20.13 216.55 21.15Q215.51 22.17 213.64 22.17L213.64 22.17Q211.77 22.17 210.73 21.15Q209.69 20.13 209.69 18.26ZM224.53 22L221.82 22L224.87 17.75L221.95 13.60L224.62 13.60L226.30 16.02L227.96 13.60L230.53 13.60L227.60 17.66L230.72 22L227.99 22L226.25 19.40L224.53 22Z" fill="#FFFFFF" x="126.31"/></svg>